<svg width="30" height="30" viewBox="0 0 44 40" fill="none" xmlns="http://www.w3.org/2000/svg">
<path d="M13.0357 0H31.2745C38.2227 0 43.8681 5.2 43.8681 11.6V28.4C43.8681 31.4765 42.5413 34.427 40.1795 36.6024C37.8178 38.7779 34.6146 40 31.2745 40H13.0357C6.08751 40 0.442139 34.8 0.442139 28.4V11.6C0.442139 8.52349 1.76895 5.57298 4.1307 3.39756C6.49244 1.22214 9.69565 0 13.0357 0ZM12.6014 4C10.5283 4 8.54009 4.75857 7.07418 6.10883C5.60827 7.45909 4.78473 9.29044 4.78473 11.2V28.8C4.78473 32.78 8.28052 36 12.6014 36H31.7088C33.7819 36 35.7701 35.2414 37.236 33.8912C38.7019 32.5409 39.5255 30.7096 39.5255 28.8V11.2C39.5255 7.22 36.0297 4 31.7088 4H12.6014ZM33.5544 7C34.2742 7 34.9646 7.26339 35.4736 7.73223C35.9826 8.20107 36.2685 8.83696 36.2685 9.5C36.2685 10.163 35.9826 10.7989 35.4736 11.2678C34.9646 11.7366 34.2742 12 33.5544 12C32.8346 12 32.1442 11.7366 31.6352 11.2678C31.1262 10.7989 30.8403 10.163 30.8403 9.5C30.8403 8.83696 31.1262 8.20107 31.6352 7.73223C32.1442 7.26339 32.8346 7 33.5544 7ZM22.1551 10C25.0344 10 27.7958 11.0536 29.8318 12.9289C31.8678 14.8043 33.0116 17.3478 33.0116 20C33.0116 22.6522 31.8678 25.1957 29.8318 27.0711C27.7958 28.9464 25.0344 30 22.1551 30C19.2758 30 16.5144 28.9464 14.4784 27.0711C12.4424 25.1957 11.2986 22.6522 11.2986 20C11.2986 17.3478 12.4424 14.8043 14.4784 12.9289C16.5144 11.0536 19.2758 10 22.1551 10ZM22.1551 14C20.4275 14 18.7707 14.6321 17.5491 15.7574C16.3275 16.8826 15.6412 18.4087 15.6412 20C15.6412 21.5913 16.3275 23.1174 17.5491 24.2426C18.7707 25.3679 20.4275 26 22.1551 26C23.8827 26 25.5395 25.3679 26.7611 24.2426C27.9827 23.1174 28.669 21.5913 28.669 20C28.669 18.4087 27.9827 16.8826 26.7611 15.7574C25.5395 14.6321 23.8827 14 22.1551 14Z" fill="white"/>
</svg>
