<svg width="35" height="35" viewBox="0 0 75 75" fill="none" xmlns="http://www.w3.org/2000/svg">
<circle cx="37.5071" cy="37.5" r="37.5" fill="white"/>
<circle cx="37.5071" cy="37.5" r="37" stroke="black" stroke-opacity="0.4"/>
<path d="M27.5071 51.5C26.6787 52.3284 25.3355 52.3284 24.5071 51.5C23.6787 50.6716 23.6787 49.3284 24.5071 48.5L30.0573 42.9498C32.791 40.2161 32.791 35.7839 30.0573 33.0503L24.5071 27.5C23.6787 26.6716 23.6787 25.3284 24.5071 24.5C25.3355 23.6716 26.6787 23.6716 27.5071 24.5L33.0573 30.0502C35.791 32.7839 40.2232 32.7839 42.9568 30.0503L48.5071 24.5C49.3355 23.6716 50.6787 23.6716 51.5071 24.5C52.3355 25.3284 52.3355 26.6716 51.5071 27.5L45.9568 33.0502C43.2232 35.7839 43.2232 40.2161 45.9568 42.9497L51.5071 48.5C52.3355 49.3284 52.3355 50.6716 51.5071 51.5C50.6787 52.3284 49.3355 52.3284 48.5071 51.5L42.9568 45.9498C40.2232 43.2161 35.791 43.2161 33.0573 45.9497L27.5071 51.5Z" fill="#EC1414"/>
</svg>
